<svg width="34" height="34" viewBox="0 0 34 34" fill="none" xmlns="http://www.w3.org/2000/svg">
<g id="Steam_icon_logo 1">
<g id="B">
<g id="Group">
<path id="Vector" d="M16.116 12.8075L16.1176 12.8902L12.0219 18.8402C11.3586 18.8099 10.6933 18.9265 10.0614 19.1865C9.78632 19.2983 9.5237 19.4385 9.27782 19.6049L0.942581 16.2154C0.942581 16.2154 0.942585 19.3539 0.942585 21.8735L7.30111 24.4973C7.61495 25.9242 8.59834 27.1754 10.0431 27.777C11.1797 28.2492 12.4573 28.2511 13.5953 27.7821C14.7332 27.3131 15.6385 26.4116 16.1123 25.2756C16.3651 24.6705 16.487 24.0188 16.4701 23.3632L22.3249 19.176L22.4688 19.1786C25.976 19.1786 28.8268 16.3195 28.8268 12.8075C28.8268 9.29561 25.9812 6.44693 22.4688 6.43961C18.9631 6.43961 16.1108 9.29561 16.1108 12.8075H16.116ZM15.1326 24.8645C14.3721 26.6952 12.2735 27.5567 10.4495 26.7967C9.64011 26.4565 8.98404 25.8306 8.60619 25.0381L10.676 25.896C10.9957 26.0291 11.3386 26.0979 11.6849 26.0984C12.0313 26.099 12.3743 26.0313 12.6945 25.8992C13.0147 25.7671 13.3057 25.5732 13.5509 25.3287C13.7961 25.0841 13.9907 24.7936 14.1236 24.4737C14.3927 23.8275 14.3943 23.1009 14.128 22.4534C13.8617 21.806 13.3494 21.2908 12.7034 21.0209L10.5588 20.1343C11.3842 19.8204 12.3226 19.81 13.2004 20.1746C14.0896 20.5423 14.7696 21.2348 15.1337 22.1204C15.4977 23.006 15.4956 23.9826 15.1284 24.8645M22.4745 17.0523C21.3507 17.0493 20.2738 16.6009 19.4799 15.8055C18.686 15.0101 18.2396 13.9324 18.2386 12.8086C18.2399 11.6849 18.6864 10.6075 19.4803 9.81234C20.2742 9.01715 21.3509 8.56896 22.4745 8.56591C23.5984 8.56868 24.6753 9.01675 25.4695 9.81197C26.2636 10.6072 26.7102 11.6847 26.7115 12.8086C26.7105 13.9326 26.264 15.0104 25.4698 15.8059C24.6757 16.6013 23.5986 17.0495 22.4745 17.0523ZM19.3005 12.8018C19.2998 11.9574 19.6344 11.1473 20.2307 10.5494C20.8271 9.95161 21.6364 9.61502 22.4808 9.61364C24.2357 9.61364 25.6632 11.0416 25.6632 12.8018C25.6636 13.6464 25.3286 14.4566 24.7318 15.0542C24.1351 15.6519 23.3254 15.9881 22.4808 15.9889C21.6365 15.9877 20.8272 15.6513 20.2308 15.0537C19.6343 14.4561 19.3001 13.6461 19.3005 12.8018Z" fill="white"/>
</g>
</g>
</g>
</svg>
