<svg width="28" height="24" viewBox="0 0 28 24" fill="none" xmlns="http://www.w3.org/2000/svg">
<g id="Logo_of_Twitter 1">
<path id="Vector" d="M25.0589 5.7908C25.0758 6.0358 25.0758 6.2808 25.0758 6.52806C25.0758 14.0621 19.3403 22.7511 8.85274 22.7511V22.7466C5.75468 22.7511 2.72097 21.8637 0.112903 20.1905C0.563387 20.2447 1.01613 20.2718 1.47 20.2729C4.03742 20.2752 6.53145 19.4137 8.55129 17.8274C6.11145 17.7811 3.97194 16.1903 3.22452 13.8679C4.07919 14.0327 4.95984 13.9989 5.79871 13.7697C3.13871 13.2323 1.225 10.8952 1.225 8.18096V8.1087C2.01758 8.55016 2.905 8.79516 3.81274 8.82225C1.30742 7.1479 0.535161 3.81499 2.04806 1.20919C4.9429 4.77128 9.21403 6.93677 13.799 7.16596C13.3395 5.18564 13.9673 3.11048 15.4485 1.71838C17.745 -0.440329 21.3568 -0.329684 23.5155 1.96564C24.7924 1.71386 26.0163 1.24532 27.1363 0.581445C26.7106 1.90128 25.8198 3.02241 24.6298 3.73483C25.76 3.60161 26.8642 3.29903 27.904 2.83725C27.1385 3.98435 26.1744 4.98354 25.0589 5.7908Z" fill="white"/>
</g>
</svg>
